 <svg width="151" height="74" viewBox="0 0 151 74" fill="none" xmlns="http://www.w3.org/2000/svg">
<path d="M9.14773 51.5568V64H2.2017V34.9091H8.92045V46.1875H9.16193C9.65436 44.8428 10.4593 43.7917 11.5767 43.0341C12.7036 42.2765 14.0814 41.8977 15.7102 41.8977C17.2443 41.8977 18.5795 42.2386 19.7159 42.9205C20.8523 43.5928 21.733 44.5445 22.358 45.7756C22.9924 47.0066 23.3049 48.446 23.2955 50.0938V64H16.3494V51.4574C16.3589 50.2453 16.0559 49.2983 15.4403 48.6165C14.8248 47.9347 13.9583 47.5938 12.8409 47.5938C12.1117 47.5938 11.4678 47.7547 10.9091 48.0767C10.3598 48.3892 9.92898 48.839 9.61648 49.4261C9.31345 50.0133 9.1572 50.7235 9.14773 51.5568ZM33.782 64.3693C32.3899 64.3693 31.1541 64.1373 30.0746 63.6733C29.0045 63.1998 28.157 62.4896 27.532 61.5426C26.9164 60.5862 26.6087 59.3883 26.6087 57.9489C26.6087 56.7367 26.8217 55.714 27.2479 54.8807C27.674 54.0473 28.2611 53.3703 29.0092 52.8494C29.7573 52.3286 30.6191 51.9356 31.5945 51.6705C32.5698 51.3958 33.6115 51.2112 34.7195 51.1165C35.96 51.0028 36.959 50.8845 37.7166 50.7614C38.4742 50.6288 39.0234 50.4441 39.3643 50.2074C39.7147 49.9612 39.8899 49.6155 39.8899 49.1705V49.0994C39.8899 48.3703 39.639 47.8068 39.1371 47.4091C38.6352 47.0114 37.9581 46.8125 37.1058 46.8125C36.1873 46.8125 35.4486 47.0114 34.8899 47.4091C34.3312 47.8068 33.9761 48.3561 33.8246 49.0568L27.4183 48.8295C27.6077 47.5038 28.0954 46.3201 28.8814 45.2784C29.6768 44.2273 30.7659 43.4034 32.1484 42.8068C33.5405 42.2008 35.2119 41.8977 37.1626 41.8977C38.5547 41.8977 39.8378 42.0634 41.0121 42.3949C42.1863 42.7169 43.209 43.1903 44.0803 43.8153C44.9515 44.4309 45.6238 45.1884 46.0973 46.0881C46.5803 46.9877 46.8217 48.0152 46.8217 49.1705V64H40.2876V60.9602H40.1172C39.7289 61.6989 39.2318 62.3239 38.6257 62.8352C38.0291 63.3466 37.3236 63.7301 36.5092 63.9858C35.7043 64.2415 34.7952 64.3693 33.782 64.3693ZM35.9268 59.8239C36.675 59.8239 37.3473 59.6723 37.9439 59.3693C38.55 59.0663 39.0329 58.6496 39.3928 58.1193C39.7526 57.5795 39.9325 56.9545 39.9325 56.2443V54.1705C39.7337 54.2746 39.4922 54.3693 39.2081 54.4545C38.9335 54.5398 38.6304 54.6203 38.299 54.696C37.9676 54.7718 37.6267 54.8381 37.2763 54.8949C36.9259 54.9517 36.5897 55.0038 36.2678 55.0511C35.6143 55.1553 35.0556 55.3163 34.5916 55.5341C34.1371 55.7519 33.7867 56.036 33.5405 56.3864C33.3037 56.7273 33.1854 57.1345 33.1854 57.608C33.1854 58.3277 33.4411 58.8769 33.9524 59.2557C34.4732 59.6345 35.1314 59.8239 35.9268 59.8239ZM51.0689 64V34.9091H58.0149V45.9176H58.157C58.4411 45.2547 58.8435 44.6155 59.3643 44C59.8946 43.3845 60.567 42.8826 61.3814 42.4943C62.2053 42.0966 63.1901 41.8977 64.3359 41.8977C65.8511 41.8977 67.2668 42.2955 68.5831 43.0909C69.9089 43.8864 70.9789 45.1127 71.7933 46.7699C72.6077 48.4271 73.0149 50.5388 73.0149 53.1051C73.0149 55.5767 72.6219 57.6458 71.8359 59.3125C71.0594 60.9792 70.0083 62.2292 68.6825 63.0625C67.3662 63.8958 65.9032 64.3125 64.2933 64.3125C63.1948 64.3125 62.2431 64.1326 61.4382 63.7727C60.6333 63.4129 59.9562 62.9394 59.407 62.3523C58.8672 61.7652 58.4505 61.1354 58.157 60.4631H57.9439V64H51.0689ZM57.8729 53.0909C57.8729 54.2652 58.0291 55.2879 58.3416 56.1591C58.6636 57.0303 59.1229 57.7074 59.7195 58.1903C60.3255 58.6638 61.05 58.9006 61.8928 58.9006C62.745 58.9006 63.4695 58.6638 64.0661 58.1903C64.6626 57.7074 65.1125 57.0303 65.4155 56.1591C65.728 55.2879 65.8842 54.2652 65.8842 53.0909C65.8842 51.9167 65.728 50.8987 65.4155 50.0369C65.1125 49.1752 64.6626 48.5076 64.0661 48.0341C63.4789 47.5606 62.7545 47.3239 61.8928 47.3239C61.0405 47.3239 60.3161 47.5559 59.7195 48.0199C59.1229 48.4839 58.6636 49.1468 58.3416 50.0085C58.0291 50.8703 57.8729 51.8977 57.8729 53.0909ZM76.6548 64V42.1818H83.6009V64H76.6548ZM80.1349 39.6392C79.1596 39.6392 78.3215 39.3172 77.6207 38.6733C76.92 38.0199 76.5696 37.2339 76.5696 36.3153C76.5696 35.4062 76.92 34.6297 77.6207 33.9858C78.3215 33.3324 79.1596 33.0057 80.1349 33.0057C81.1198 33.0057 81.9579 33.3324 82.6491 33.9858C83.3499 34.6297 83.7003 35.4062 83.7003 36.3153C83.7003 37.2339 83.3499 38.0199 82.6491 38.6733C81.9579 39.3172 81.1198 39.6392 80.1349 39.6392ZM100.337 42.1818V47.2955H86.5732V42.1818H100.337ZM89.4567 36.9545H96.4027V57.1392C96.4027 57.5653 96.469 57.911 96.6016 58.1761C96.7436 58.4318 96.9472 58.6165 97.2124 58.7301C97.4775 58.8343 97.7947 58.8864 98.1641 58.8864C98.4292 58.8864 98.7086 58.8627 99.0021 58.8153C99.3052 58.7585 99.5324 58.7112 99.6839 58.6733L100.735 63.6875C100.404 63.7822 99.9349 63.9006 99.3288 64.0426C98.7322 64.1847 98.0173 64.2746 97.1839 64.3125C95.5552 64.3883 94.1584 64.1989 92.9936 63.7443C91.8383 63.2803 90.9529 62.5606 90.3374 61.5852C89.7313 60.6098 89.4377 59.3835 89.4567 57.9062V36.9545ZM122.656 48.8438L116.278 49.0142C116.212 48.5597 116.032 48.1572 115.739 47.8068C115.445 47.447 115.062 47.1676 114.588 46.9688C114.124 46.7604 113.584 46.6562 112.969 46.6562C112.164 46.6562 111.477 46.8172 110.909 47.1392C110.35 47.4612 110.076 47.8968 110.085 48.446C110.076 48.8722 110.246 49.2415 110.597 49.554C110.956 49.8665 111.596 50.1174 112.514 50.3068L116.719 51.1023C118.897 51.5189 120.516 52.2102 121.577 53.1761C122.647 54.142 123.187 55.4205 123.196 57.0114C123.187 58.5076 122.741 59.8097 121.861 60.9176C120.99 62.0256 119.796 62.8873 118.281 63.5028C116.766 64.1089 115.033 64.4119 113.082 64.4119C109.967 64.4119 107.509 63.7727 105.71 62.4943C103.92 61.2064 102.898 59.483 102.642 57.3239L109.503 57.1534C109.654 57.9489 110.047 58.5549 110.682 58.9716C111.316 59.3883 112.126 59.5966 113.111 59.5966C114.001 59.5966 114.725 59.4309 115.284 59.0994C115.843 58.768 116.127 58.3277 116.136 57.7784C116.127 57.286 115.909 56.893 115.483 56.5994C115.057 56.2964 114.389 56.0597 113.48 55.8892L109.673 55.1648C107.486 54.767 105.857 54.0331 104.787 52.9631C103.717 51.8835 103.187 50.5104 103.196 48.8438C103.187 47.3854 103.575 46.1402 104.361 45.108C105.147 44.0663 106.264 43.2708 107.713 42.7216C109.162 42.1723 110.871 41.8977 112.841 41.8977C115.795 41.8977 118.125 42.518 119.83 43.7585C121.534 44.9896 122.476 46.6847 122.656 48.8438Z" fill="white"/>
<rect x="0.5" y="0.5" width="15" height="15" rx="3.5" fill="#18181B" stroke="#27272A"/>
<rect x="20.5" y="0.5" width="15" height="15" rx="3.5" fill="#4C1D95" stroke="#6D28D9"/>
<rect x="40.5" y="0.5" width="15" height="15" rx="3.5" fill="#5B21B6" stroke="#7C3AED"/>
<rect x="60.5" y="0.5" width="15" height="15" rx="3.5" fill="#6D28D9" stroke="#8B5CF6"/>
<rect x="80.5" y="0.5" width="15" height="15" rx="3.5" fill="#7C3AED" stroke="#A78BFA"/>
<rect x="100.5" y="0.5" width="15" height="15" rx="3.5" fill="#8B5CF6" stroke="#C4B5FD"/>
</svg>

